Genre:Drama | History | War
Language:English  http://www.imdb.com/title/tt1418646/
Source:BluRay DD5.1 x264-EbP
Subtitles:Romana


Format : MPEG-4
Format profile : Base Media
Codec ID : isom
File size : 2.16 GiB
Duration : 2h 2mn
Overall bit rate : 2 524 Kbps
Movie name : Beneath Hill 60 2010 720p BRRip x264 Feel-Free


Video
Format settings, CABAC : Yes
Format settings, ReFrames : 4 frames
Codec ID : avc1
Codec ID/Info : Advanced Video Coding
Duration : 2h 2mn
Bit rate mode : Variable
Bit rate : 2 200 Kbps
Width : 1 280 pixels
Height : 534 pixels
Display aspect ratio : 2.35:1
Frame rate mode : Constant
Frame rate : 23.976 fps
Color space : YUV
Chroma subsampling : 4:2:0
Bit depth : 8 bits
Scan type : Progressive
Bits/(Pixel*Frame) : 0.134
Stream size : 1.82 GiB (85%)
Writing library : x264

Audio
ID : 2
Format : AAC
Format/Info : Advanced Audio Codec
Format version : Version 4
Format profile : LC
Codec ID : 40
Duration : 2h 2mn
Bit rate mode : Variable
Bit rate : 384 Kbps
Channel(s) : 6 channels
Channel positions : Front: L C R, Side: L R, LFE
Sampling rate : 48.0 KHz
Stream size : 336 MiB (15%)



Plot:
The extraordinary true story of Oliver Woodward. It's 1916 and Woodward must tear himself from his new young love to go to the mud and carnage of the Western Front
 
http://rapidhdd.com/images/680572vlcsnap-00001.png 
http://www.rapidhdd.com/images/308153vlcsnap-00004.png 
http://www.rapidhdd.com/images/990320vlcsnap-00002.png 
http://www.rapidhdd.com/images/117976vlcsnap-00005.png